<svg xmlns="http://www.w3.org/2000/svg" viewBox="0 0 800 1000"><defs><linearGradient id="g" x1="0" y1="0" x2="1" y2="1"><stop stop-color="#f8ebe9"/><stop offset="1" stop-color="#d8b68c"/></linearGradient></defs><rect width="800" height="1000" fill="url(#g)"/><circle cx="630" cy="180" r="120" fill="#f2d3d4"/><path d="M190 710c30-220 140-360 330-410 85-22 145 15 172 92-90-30-155-14-210 48 60 20 105 65 130 130-80-38-148-33-205 15-38 32-68 78-88 140z" fill="#fffaf5"/><path d="M405 365c75 35 112 95 112 180" fill="none" stroke="#b4936f" stroke-width="20" stroke-linecap="round"/><circle cx="525" cy="350" r="10" fill="#6d5446"/><text x="65" y="925" font-family="serif" font-size="70" fill="#755852">equestrian grace</text></svg>